<svg width="209" height="40" viewBox="0 0 209 40" fill="none" xmlns="http://www.w3.org/2000/svg">
<path d="M83.3382 9.32V11.552H76.2582V16.472H81.7782V18.704H76.2582V26H73.5222V9.32H83.3382ZM91.6098 26.216C90.3618 26.216 89.2338 25.936 88.2258 25.376C87.2178 24.8 86.4258 24 85.8498 22.976C85.2738 21.936 84.9858 20.736 84.9858 19.376C84.9858 18.032 85.2818 16.84 85.8738 15.8C86.4658 14.76 87.2738 13.96 88.2978 13.4C89.3218 12.84 90.4658 12.56 91.7298 12.56C92.9938 12.56 94.1378 12.84 95.1618 13.4C96.1858 13.96 96.9938 14.76 97.5858 15.8C98.1778 16.84 98.4738 18.032 98.4738 19.376C98.4738 20.72 98.1698 21.912 97.5618 22.952C96.9538 23.992 96.1218 24.8 95.0658 25.376C94.0258 25.936 92.8738 26.216 91.6098 26.216ZM91.6098 23.84C92.3138 23.84 92.9698 23.672 93.5778 23.336C94.2018 23 94.7058 22.496 95.0898 21.824C95.4738 21.152 95.6658 20.336 95.6658 19.376C95.6658 18.416 95.4818 17.608 95.1138 16.952C94.7458 16.28 94.2578 15.776 93.6498 15.44C93.0418 15.104 92.3858 14.936 91.6818 14.936C90.9778 14.936 90.3218 15.104 89.7138 15.44C89.1218 15.776 88.6498 16.28 88.2978 16.952C87.9458 17.608 87.7698 18.416 87.7698 19.376C87.7698 20.8 88.1298 21.904 88.8498 22.688C89.5858 23.456 90.5058 23.84 91.6098 23.84ZM106.914 26.216C105.666 26.216 104.538 25.936 103.53 25.376C102.522 24.8 101.73 24 101.154 22.976C100.578 21.936 100.29 20.736 100.29 19.376C100.29 18.032 100.586 16.84 101.178 15.8C101.77 14.76 102.578 13.96 103.602 13.4C104.626 12.84 105.77 12.56 107.034 12.56C108.298 12.56 109.442 12.84 110.466 13.4C111.49 13.96 112.298 14.76 112.89 15.8C113.482 16.84 113.778 18.032 113.778 19.376C113.778 20.72 113.474 21.912 112.866 22.952C112.258 23.992 111.426 24.8 110.37 25.376C109.33 25.936 108.178 26.216 106.914 26.216ZM106.914 23.84C107.618 23.84 108.274 23.672 108.882 23.336C109.506 23 110.01 22.496 110.394 21.824C110.778 21.152 110.97 20.336 110.97 19.376C110.97 18.416 110.786 17.608 110.418 16.952C110.05 16.28 109.562 15.776 108.954 15.44C108.346 15.104 107.69 14.936 106.986 14.936C106.282 14.936 105.626 15.104 105.018 15.44C104.426 15.776 103.954 16.28 103.602 16.952C103.25 17.608 103.074 18.416 103.074 19.376C103.074 20.8 103.434 21.904 104.154 22.688C104.89 23.456 105.81 23.84 106.914 23.84ZM115.571 19.328C115.571 18 115.843 16.824 116.387 15.8C116.947 14.776 117.699 13.984 118.643 13.424C119.603 12.848 120.667 12.56 121.835 12.56C122.699 12.56 123.547 12.752 124.379 13.136C125.227 13.504 125.899 14 126.395 14.624V8.24H129.155V26H126.395V24.008C125.947 24.648 125.323 25.176 124.523 25.592C123.739 26.008 122.835 26.216 121.811 26.216C120.659 26.216 119.603 25.928 118.643 25.352C117.699 24.76 116.947 23.944 116.387 22.904C115.843 21.848 115.571 20.656 115.571 19.328ZM126.395 19.376C126.395 18.464 126.203 17.672 125.819 17C125.451 16.328 124.963 15.816 124.355 15.464C123.747 15.112 123.091 14.936 122.387 14.936C121.683 14.936 121.027 15.112 120.419 15.464C119.811 15.8 119.315 16.304 118.931 16.976C118.563 17.632 118.379 18.416 118.379 19.328C118.379 20.24 118.563 21.04 118.931 21.728C119.315 22.416 119.811 22.944 120.419 23.312C121.043 23.664 121.699 23.84 122.387 23.84C123.091 23.84 123.747 23.664 124.355 23.312C124.963 22.96 125.451 22.448 125.819 21.776C126.203 21.088 126.395 20.288 126.395 19.376ZM152.303 9.32V26H149.567V18.704H141.719V26H138.983V9.32H141.719V16.472H149.567V9.32H152.303ZM167.881 12.776V26H165.145V24.44C164.713 24.984 164.145 25.416 163.441 25.736C162.753 26.04 162.017 26.192 161.233 26.192C160.193 26.192 159.257 25.976 158.425 25.544C157.609 25.112 156.961 24.472 156.481 23.624C156.017 22.776 155.785 21.752 155.785 20.552V12.776H158.497V20.144C158.497 21.328 158.793 22.24 159.385 22.88C159.977 23.504 160.785 23.816 161.809 23.816C162.833 23.816 163.641 23.504 164.233 22.88C164.841 22.24 165.145 21.328 165.145 20.144V12.776H167.881ZM178.163 12.56C179.203 12.56 180.131 12.776 180.947 13.208C181.779 13.64 182.427 14.28 182.891 15.128C183.355 15.976 183.587 17 183.587 18.2V26H180.875V18.608C180.875 17.424 180.579 16.52 179.987 15.896C179.395 15.256 178.587 14.936 177.563 14.936C176.539 14.936 175.723 15.256 175.115 15.896C174.523 16.52 174.227 17.424 174.227 18.608V26H171.491V12.776H174.227V14.288C174.675 13.744 175.243 13.32 175.931 13.016C176.635 12.712 177.379 12.56 178.163 12.56ZM190.269 15.008V22.328C190.269 22.824 190.381 23.184 190.605 23.408C190.845 23.616 191.245 23.72 191.805 23.72H193.485V26H191.325C190.093 26 189.149 25.712 188.493 25.136C187.837 24.56 187.509 23.624 187.509 22.328V15.008H185.949V12.776H187.509V9.488H190.269V12.776H193.485V15.008H190.269Z" fill="#333333"/>
<path d="M37.9287 20C37.9287 28.5911 30.9215 35.5556 22.2777 35.5556C13.634 35.5556 6.62682 28.5911 6.62682 20C6.62682 11.4089 -14.4418 4.44446 22.2777 4.44446C58.9972 4.44446 37.9287 11.4089 37.9287 20Z" fill="#A0D006"/>
</svg>
